<svg width="135.47mm" height="83.538mm" version="1.1" viewBox="0 0 135.47 83.538" xmlns="http://www.w3.org/2000/svg"><g transform="translate(-33.984 -63.138)"><path d="m167.19 90.231h-130.95c-1.3547 0-2.2577-0.90302-2.2577-2.2577v-9.031c0-1.3547 0.90302-2.2577 2.2577-2.2577h130.95c1.3547 0 2.2577 0.90302 2.2577 2.2577v9.031c2.7e-4 1.3547-0.90276 2.2577-2.2574 2.2577zm-128.69-4.5154h126.44v-4.5156h-126.44z" stroke-width=".26458"/><path d="m142.36 142.16h18.062v-51.929h-117.4v51.929h18.062c1.129-21.449 18.965-38.382 40.64-38.382 21.675 0 39.511 16.933 40.64 38.382z"/><path d="m162.68 146.68h-22.578c-1.3547 0-2.2577-0.90303-2.2577-2.2577 0-19.868-16.256-36.124-36.124-36.124-19.868 0-36.124 16.256-36.124 36.124 0 1.3547-0.90302 2.2577-2.2577 2.2577h-22.578c-1.3547 0-2.2577-0.90303-2.2577-2.2577v-56.445c0-1.3547 0.90302-2.2577 2.2577-2.2577h121.92c1.3547 0 2.2577 0.90302 2.2577 2.2577v56.444c0 1.3547-0.90302 2.258-2.2577 2.258z"/><g stroke-width=".26458"> <path d="m47.531 81.2c-1.3547 0-2.2577-0.90302-2.2577-2.2577v-13.547c0-1.3547 0.90302-2.2577 2.2577-2.2577 1.3547 0 2.2577 0.90302 2.2577 2.2577v13.547c0 1.3547-0.90302 2.2577-2.2577 2.2577z"/><path d="m101.72 81.2c-1.3547 0-2.2577-0.90302-2.2577-2.2577v-13.547c0-1.3547 0.90303-2.2577 2.2577-2.2577 1.3547 0 2.2577 0.90302 2.2577 2.2577v13.547c0 1.3547-0.90302 2.2577-2.2577 2.2577z"/><path d="m115.26 81.2c-1.3547 0-2.2577-0.90302-2.2577-2.2577v-13.547c0-1.3547 0.90302-2.2577 2.2577-2.2577s2.2577 0.90302 2.2577 2.2577v13.547c0 1.3547-0.90302 2.2577-2.2577 2.2577z"/><path d="m128.81 81.2c-1.3547 0-2.2577-0.90302-2.2577-2.2577v-13.547c0-1.3547 0.90302-2.2577 2.2577-2.2577 1.3547 0 2.2577 0.90302 2.2577 2.2577v13.547c0 1.3547-0.90303 2.2577-2.2577 2.2577z"/><path d="m142.36 81.2c-1.3547 0-2.2577-0.90302-2.2577-2.2577v-13.547c0-1.3547 0.90303-2.2577 2.2577-2.2577 1.3547 0 2.2577 0.90302 2.2577 2.2577v13.547c0 1.3547-0.90302 2.2577-2.2577 2.2577z"/><path d="m155.9 81.2c-1.3547 0-2.2577-0.90302-2.2577-2.2577v-13.547c0-1.3547 0.90302-2.2577 2.2577-2.2577s2.2577 0.90302 2.2577 2.2577v13.547c0 1.3547-0.90302 2.2577-2.2577 2.2577z"/><path d="m74.624 81.2c-1.3547 0-2.2577-0.90302-2.2577-2.2577v-13.547c0-1.3547 0.90302-2.2577 2.2577-2.2577 1.3547 0 2.2577 0.90302 2.2577 2.2577v13.547c0 1.3547-0.90302 2.2577-2.2577 2.2577z"/><path d="m61.077 81.2c-1.3547 0-2.2577-0.90302-2.2577-2.2577v-13.547c0-1.3547 0.90302-2.2577 2.2577-2.2577 1.3547 0 2.2577 0.90302 2.2577 2.2577v13.547c0 1.3547-0.90302 2.2577-2.2577 2.2577z"/><path d="m88.171 81.2c-1.3547 0-2.2577-0.90302-2.2577-2.2577v-13.547c0-1.3547 0.90302-2.2577 2.2577-2.2577 1.3547 0 2.2577 0.90302 2.2577 2.2577v13.547c0 1.3547-0.90302 2.2577-2.2577 2.2577z"/><path d="m167.19 67.653h-130.95c-1.3547 0-2.2577-0.90302-2.2577-2.2577s0.90302-2.2577 2.2577-2.2577h130.95c1.3547 0 2.2577 0.90302 2.2577 2.2577s-0.90276 2.2577-2.2574 2.2577z"/></g></g></svg>
