<?xml version="1.0" encoding="UTF-8" standalone="no"?>
<!-- Created with Inkscape (http://www.inkscape.org/) -->

<svg
   width="50.17944mm"
   height="81.142288mm"
   viewBox="0 0 50.17944 81.142288"
   version="1.1"
   id="svg5"
   inkscape:version="1.2.2 (b0a8486541, 2022-12-01)"
   sodipodi:docname="mill-src.svg"
   xmlns:inkscape="http://www.inkscape.org/namespaces/inkscape"
   xmlns:sodipodi="http://sodipodi.sourceforge.net/DTD/sodipodi-0.dtd"
   xmlns="http://www.w3.org/2000/svg"
   xmlns:svg="http://www.w3.org/2000/svg">
  <sodipodi:namedview
     id="namedview7"
     pagecolor="#ffffff"
     bordercolor="#000000"
     borderopacity="0.25"
     inkscape:showpageshadow="2"
     inkscape:pageopacity="0.0"
     inkscape:pagecheckerboard="0"
     inkscape:deskcolor="#d1d1d1"
     inkscape:document-units="mm"
     showgrid="false"
     showguides="true"
     inkscape:zoom="1.1971171"
     inkscape:cx="83.534019"
     inkscape:cy="210.50573"
     inkscape:window-width="1920"
     inkscape:window-height="1008"
     inkscape:window-x="0"
     inkscape:window-y="0"
     inkscape:window-maximized="1"
     inkscape:current-layer="g3234" />
  <defs
     id="defs2" />
  <g
     inkscape:label="Layer 1"
     inkscape:groupmode="layer"
     id="layer1"
     transform="translate(-49.401716,-47.909806)">
    <g
       id="g3234">
      <path
         style="fill:#4f3318;stroke:#000000;stroke-width:1.494;stroke-dasharray:none;stop-color:#000000;fill-opacity:1;stroke-opacity:1"
         d="m 54.902969,85.032713 8.277269,-9.295884 21.918453,6.69817 0.742142,-32.650498 c 3.727479,-2.536215 5.87258,-0.03215 5.87258,-0.03215 l 0.631065,40.092328 6.338882,5.770015 0.147865,21.117506 -4.688557,2.88201 0.171362,3.41155 c 0,0 -0.206514,3.77755 -2.92895,4.82559 -2.722435,1.04804 -5.935918,0.1 -7.349562,-1.05077 l -1.887944,1.2381 -25.175835,-15.03776 c 0,0 2.376329,-5.87263 1.189685,-11.40422 -1.186644,-5.531594 -3.284938,-6.22935 -3.284938,-6.22935 z"
         id="path243"
         sodipodi:nodetypes="cccccccccczccczcc" />
      <g
         id="g2614"
         style="fill:#ffffff;fill-opacity:1;stroke:#000000;stroke-opacity:1">
        <path
           style="fill:#ffffff;fill-opacity:1;stroke:#000000;stroke-width:1;stroke-dasharray:none;stop-color:#000000;stroke-opacity:1"
           d="m 58.63588,90.338176 2.02937,0.811187 -0.0028,4.293069 -2.018694,-0.916884 z"
           id="path1150"
           sodipodi:nodetypes="ccccc" />
        <path
           style="fill:#ffffff;fill-opacity:1;stroke:#000000;stroke-width:1;stroke-dasharray:none;stop-color:#000000;stroke-opacity:1"
           d="m 64.159585,92.560976 2.078629,0.82679 -0.0045,4.533834 -2.092875,-0.948319 z"
           id="path1150-3"
           sodipodi:nodetypes="ccccc" />
        <path
           style="fill:#ffffff;fill-opacity:1;stroke:#000000;stroke-width:1;stroke-dasharray:none;stop-color:#000000;stroke-opacity:1"
           d="m 70.132081,95.055129 2.321681,0.949415 -0.01026,4.815586 -2.294379,-1.042064 z"
           id="path1150-6"
           sodipodi:nodetypes="ccccc" />
        <path
           style="fill:#ffffff;fill-opacity:1;stroke:#000000;stroke-width:1;stroke-dasharray:none;stop-color:#000000;stroke-opacity:1"
           d="m 76.494291,97.565642 2.480027,1.030908 -0.0043,5.04888 -2.491907,-1.10831 z"
           id="path1150-7"
           sodipodi:nodetypes="ccccc" />
        <path
           style="fill:#ffffff;fill-opacity:1;stroke:#000000;stroke-width:1;stroke-dasharray:none;stop-color:#000000;stroke-opacity:1"
           d="m 64.159536,100.12008 2.078629,0.97194 -0.0045,4.53352 -2.092875,-1.09446 z"
           id="path1150-3-7"
           sodipodi:nodetypes="ccccc" />
        <path
           style="fill:#ffffff;fill-opacity:1;stroke:#000000;stroke-width:1;stroke-dasharray:none;stop-color:#000000;stroke-opacity:1"
           d="m 70.195213,102.95942 2.321681,1.11155 -0.01026,4.81486 -2.294379,-1.20228 z"
           id="path1150-6-0"
           sodipodi:nodetypes="ccccc" />
        <path
           style="fill:#ffffff;fill-opacity:1;stroke:#000000;stroke-width:1;stroke-dasharray:none;stop-color:#000000;stroke-opacity:1"
           d="m 76.579813,106.06218 2.480027,1.20409 -0.0043,5.04858 -2.491907,-1.28232 z"
           id="path1150-7-9"
           sodipodi:nodetypes="ccccc" />
        <path
           style="fill:#ffffff;fill-opacity:1;stroke:#000000;stroke-width:1;stroke-dasharray:none;stop-color:#000000;stroke-opacity:1"
           d="m 64.159491,107.98259 2.078629,1.11453 -0.0045,4.53321 -2.092875,-1.23803 z"
           id="path1150-3-3"
           sodipodi:nodetypes="ccccc" />
        <path
           style="fill:#ffffff;fill-opacity:1;stroke:#000000;stroke-width:1;stroke-dasharray:none;stop-color:#000000;stroke-opacity:1"
           d="m 70.135448,111.07235 2.321681,1.27081 -0.01026,4.81416 -2.294379,-1.35967 z"
           id="path1150-6-6"
           sodipodi:nodetypes="ccccc" />
        <path
           style="fill:#ffffff;fill-opacity:1;stroke:#000000;stroke-width:1;stroke-dasharray:none;stop-color:#000000;stroke-opacity:1"
           d="m 76.656536,114.42706 2.480027,1.37421 -0.0043,5.04828 -2.491907,-1.45325 z"
           id="path1150-7-0"
           sodipodi:nodetypes="ccccc" />
      </g>
      <g
         id="g2356"
         transform="matrix(0.73936154,-0.03006901,0.01209683,0.95110037,13.666765,6.0465472)"
         style="fill:#4f3318;fill-opacity:1;stroke:#000000;stroke-width:1.19219;stroke-dasharray:none;stroke-opacity:1">
        <ellipse
           style="fill:#4f3318;fill-opacity:1;stroke:#000000;stroke-width:1.19219;stroke-dasharray:none;stroke-opacity:1;stop-color:#000000"
           id="path297"
           cx="51.635487"
           cy="106.22584"
           rx="4.4425817"
           ry="9.0199051" />
        <ellipse
           style="fill:#4f3318;fill-opacity:1;stroke:#000000;stroke-width:1.19219;stroke-dasharray:none;stroke-opacity:1;stop-color:#000000"
           id="path2182"
           cx="50.903931"
           cy="105.83398"
           rx="0.47825637"
           ry="1.3218334" />
      </g>
      <path
         style="fill:#ffffff;fill-opacity:1;stroke:#000000;stroke-width:1;stroke-dasharray:none;stroke-opacity:1;stop-color:#000000"
         d="m 52.409885,97.014205 2.986572,-1.201323 c 0.0734,-0.06454 0.138609,-0.08763 0.219926,-0.118861"
         id="path2247" />
      <path
         style="fill:#ffffff;fill-opacity:1;stroke:#000000;stroke-width:1;stroke-dasharray:none;stroke-opacity:1;stop-color:#000000"
         d="m 54.549791,98.652722 2.617061,-1.197892 c 0.06162,-0.0689 0.118997,-0.09153 0.190368,-0.122477"
         id="path2247-2"
         inkscape:transform-center-x="0.064804097"
         inkscape:transform-center-y="0.31298099" />
      <path
         style="fill:#ffffff;fill-opacity:1;stroke:#000000;stroke-width:1;stroke-dasharray:none;stroke-opacity:1;stop-color:#000000"
         d="m 56.191165,101.02769 2.013657,-0.95204 c 0.04919,-0.0716 0.0932,-0.08819 0.148034,-0.112103"
         id="path2247-6"
         inkscape:transform-center-x="-0.33311374"
         inkscape:transform-center-y="1.3924077" />
      <path
         style="fill:#ffffff;fill-opacity:1;stroke:#000000;stroke-width:1;stroke-dasharray:none;stroke-opacity:1;stop-color:#000000"
         d="m 56.384377,104.73277 2.439434,-1.1296 c 0.05517,-0.0812 0.10885,-0.10108 0.175459,-0.12967"
         id="path2247-1"
         inkscape:transform-center-x="0.10840006"
         inkscape:transform-center-y="0.20210648" />
      <path
         style="fill:#ffffff;fill-opacity:1;stroke:#000000;stroke-width:1;stroke-dasharray:none;stroke-opacity:1;stop-color:#000000"
         d="m 56.459561,108.03199 2.106251,-0.8276 c 0.05455,-0.0689 0.100286,-0.0826 0.157523,-0.10306"
         id="path2247-8" />
      <path
         style="fill:#ffffff;fill-opacity:1;stroke:#000000;stroke-width:1;stroke-dasharray:none;stroke-opacity:1;stop-color:#000000"
         d="m 55.481733,111.24024 2.610817,-0.93703 c 0.06701,-0.0699 0.123746,-0.0863 0.194717,-0.10985"
         id="path2247-7" />
      <path
         style="fill:#ffffff;fill-opacity:1;stroke:#000000;stroke-width:1;stroke-dasharray:none;stroke-opacity:1;stop-color:#000000"
         d="m 53.345112,114.19325 4.248327,-1.50185 c 0.110356,-0.0656 0.202572,-0.0959 0.317999,-0.1355"
         id="path2247-20" />
    </g>
  </g>
</svg>
