<svg width="50.179mm" height="81.142mm" version="1.1" viewBox="0 0 50.179 81.142" xmlns="http://www.w3.org/2000/svg">
 <g transform="translate(-49.402 -47.91)">
  <g stroke="#000">
   <path d="m54.903 85.033 8.2773-9.2959 21.918 6.6982 0.74214-32.65c3.7275-2.5362 5.8726-0.03215 5.8726-0.03215l0.63106 40.092 6.3389 5.77 0.14786 21.118-4.6886 2.882 0.17136 3.4116s-0.20651 3.7776-2.929 4.8256c-2.7224 1.048-5.9359 0.1-7.3496-1.0508l-1.8879 1.2381-25.176-15.038s2.3763-5.8726 1.1897-11.404c-1.1866-5.5316-3.2849-6.2294-3.2849-6.2294z" fill="#4f3318" stop-color="#000000" stroke-width="1.494"/>
   <g fill="#fff">
    <path d="m58.636 90.338 2.0294 0.81119-0.0028 4.2931-2.0187-0.91688z" stop-color="#000000"/>
    <path d="m64.16 92.561 2.0786 0.82679-0.0045 4.5338-2.0929-0.94832z" stop-color="#000000"/>
    <path d="m70.132 95.055 2.3217 0.94942-0.01026 4.8156-2.2944-1.0421z" stop-color="#000000"/>
    <path d="m76.494 97.566 2.48 1.0309-0.0043 5.0489-2.4919-1.1083z" stop-color="#000000"/>
    <path d="m64.16 100.12 2.0786 0.97194-0.0045 4.5335-2.0929-1.0945z" stop-color="#000000"/>
    <path d="m70.195 102.96 2.3217 1.1116-0.01026 4.8149-2.2944-1.2023z" stop-color="#000000"/>
    <path d="m76.58 106.06 2.48 1.2041-0.0043 5.0486-2.4919-1.2823z" stop-color="#000000"/>
    <path d="m64.159 107.98 2.0786 1.1145-0.0045 4.5332-2.0929-1.238z" stop-color="#000000"/>
    <path d="m70.135 111.07 2.3217 1.2708-0.01026 4.8142-2.2944-1.3597z" stop-color="#000000"/>
    <path d="m76.657 114.43 2.48 1.3742-0.0043 5.0483-2.4919-1.4532z" stop-color="#000000"/>
   </g>
   <g transform="matrix(.73936 -.030069 .012097 .9511 13.667 6.0465)" fill="#4f3318" stroke-width="1.1922">
    <ellipse cx="51.635" cy="106.23" rx="4.4426" ry="9.0199" stop-color="#000000"/>
    <ellipse cx="50.904" cy="105.83" rx=".47826" ry="1.3218" stop-color="#000000"/>
   </g>
   <g fill="#fff">
    <path d="m52.41 97.014 2.9866-1.2013c0.0734-0.06454 0.13861-0.08763 0.21993-0.11886" stop-color="#000000"/>
    <path d="m54.55 98.653 2.6171-1.1979c0.06162-0.0689 0.119-0.09153 0.19037-0.12248" stop-color="#000000"/>
    <path d="m56.191 101.03 2.0137-0.95204c0.04919-0.0716 0.0932-0.08819 0.14803-0.1121" stop-color="#000000"/>
    <path d="m56.384 104.73 2.4394-1.1296c0.05517-0.0812 0.10885-0.10108 0.17546-0.12967" stop-color="#000000"/>
    <path d="m56.46 108.03 2.1063-0.8276c0.05455-0.0689 0.10029-0.0826 0.15752-0.10306" stop-color="#000000"/>
    <path d="m55.482 111.24 2.6108-0.93703c0.06701-0.0699 0.12375-0.0863 0.19472-0.10985" stop-color="#000000"/>
    <path d="m53.345 114.19 4.2483-1.5018c0.11036-0.0656 0.20257-0.0959 0.318-0.1355" stop-color="#000000"/>
   </g>
  </g>
 </g>
</svg>
